gait_14_test.mot
version=1
nRows=12
nColumns=19
inDegrees=yes
endheader
time	ground_force_vx	ground_force_vy	ground_force_vz	ground_force_px	ground_force_py	ground_force_pz	1_ground_force_vx	1_ground_force_vy	1_ground_force_vz	1_ground_force_px	1_ground_force_py	1_ground_force_pz	ground_torque_x	ground_torque_y	ground_torque_z	1_ground_torque_x	1_ground_torque_y	1_ground_torque_z
      3.21100000	     -6.02848189	     27.15035547	      0.67163946	     -0.57471306	      0.00000000	     -0.23581236	      0.00000000	      0.00000000	      0.00000000	      0.00000000	      0.00000000	      0.00000000	      0.00000000	      0.08328643	      0.00000000	      0.00000000	      0.00000000	      0.00000000
      3.21200000	     -6.58216091	     30.53654959	      0.64531022	     -0.57481416	      0.00000000	     -0.23614813	      0.00000000	      0.00000000	      0.00000000	      0.00000000	      0.00000000	      0.00000000	      0.00000000	      0.09082173	      0.00000000	      0.00000000	      0.00000000	      0.00000000
      3.21300000	     -7.15495065	     34.06733995	      0.61566323	     -0.57489617	      0.00000000	     -0.23643513	      0.00000000	      0.00000000	      0.00000000	      0.00000000	      0.00000000	      0.00000000	      0.00000000	      0.09879634	      0.00000000	      0.00000000	      0.00000000	      0.00000000
      3.21400000	     -7.74640644	     37.74094714	      0.58265298	     -0.57496316	      0.00000000	     -0.23668406	      0.00000000	      0.00000000	      0.00000000	      0.00000000	      0.00000000	      0.00000000	      0.00000000	      0.10719301	      0.00000000	      0.00000000	      0.00000000	      0.00000000
      3.21500000	     -8.35602098	     41.55510239	      0.54624935	     -0.57501806	      0.00000000	     -0.23690270	      0.00000000	      0.00000000	      0.00000000	      0.00000000	      0.00000000	      0.00000000	      0.00000000	      0.11599863	      0.00000000	      0.00000000	      0.00000000	      0.00000000
      3.21600000	     -8.98322517	     45.50703865	      0.50643901	     -0.57506305	      0.00000000	     -0.23709684	      0.00000000	      0.00000000	      0.00000000	      0.00000000	      0.00000000	      0.00000000	      0.00000000	      0.12520263	      0.00000000	      0.00000000	      0.00000000	      0.00000000
      3.21700000	     -9.62738925	     49.59348398	      0.46322682	     -0.57509978	      0.00000000	     -0.23727089	      0.00000000	      0.00000000	      0.00000000	      0.00000000	      0.00000000	      0.00000000	      0.00000000	      0.13479610	      0.00000000	      0.00000000	      0.00000000	      0.00000000
      3.21800000	    -10.28782462	     53.81065754	      0.41663729	     -0.57512949	      0.00000000	     -0.23742826	      0.00000000	      0.00000000	      0.00000000	      0.00000000	      0.00000000	      0.00000000	      0.00000000	      0.14477106	      0.00000000	      0.00000000	      0.00000000	      0.00000000
      3.21900000	    -10.96378607	     58.15426835	      0.36671608	     -0.57515317	      0.00000000	     -0.23757162	      0.00000000	      0.00000000	      0.00000000	      0.00000000	      0.00000000	      0.00000000	      0.00000000	      0.15512012	      0.00000000	      0.00000000	      0.00000000	      0.00000000
      3.22000000	    -11.65447474	     62.61951715	      0.31353146	     -0.57517155	      0.00000000	     -0.23770310	      0.00000000	      0.00000000	      0.00000000	      0.00000000	      0.00000000	      0.00000000	      0.00000000	      0.16583614	      0.00000000	      0.00000000	      0.00000000	      0.00000000
      3.22100000	    -12.35904160	     67.20110160	      0.25717589	     -0.57518525	      0.00000000	     -0.23782442	      0.00000000	      0.00000000	      0.00000000	      0.00000000	      0.00000000	      0.00000000	      0.00000000	      0.17691210	      0.00000000	      0.00000000	      0.00000000	      0.00000000
      3.22200000	    -13.07659167	     71.89322497	      0.19776757	     -0.57519472	      0.00000000	     -0.23793696	      0.00000000	      0.00000000	      0.00000000	      0.00000000	      0.00000000	      0.00000000	      0.00000000	      0.18834096	      0.00000000	      0.00000000	      0.00000000	      0.00000000
